<?xml version="1.0" standalone="no"?>
<!DOCTYPE svg PUBLIC "-//W3C//DTD SVG 20010904//EN"
 "http://www.w3.org/TR/2001/REC-SVG-20010904/DTD/svg10.dtd">
<svg version="1.0" xmlns="http://www.w3.org/2000/svg"
 width="63.000000pt" height="63.000000pt" viewBox="0 0 63.000000 63.000000"
 preserveAspectRatio="xMidYMid meet">

<g transform="translate(0.000000,63.000000) scale(0.100000,-0.100000)"
fill="#000000" stroke="none">
<path d="M210 591 c0 -44 32 -86 74 -97 36 -9 32 -30 -10 -50 -26 -13 -38 -14
-47 -5 -16 16 -89 14 -114 -4 -29 -21 -46 -75 -34 -108 6 -14 24 -36 40 -48
24 -18 31 -30 31 -57 0 -27 8 -42 35 -68 23 -21 35 -42 35 -59 0 -37 16 -62
52 -81 62 -32 138 11 138 78 0 21 10 39 35 62 27 26 35 41 35 68 0 27 7 39 31
57 40 30 53 65 38 108 -19 59 -70 75 -154 49 -12 -4 -29 1 -44 13 -24 19 -24
19 -7 46 10 15 36 34 57 43 21 8 39 19 39 24 0 13 -38 9 -71 -7 -28 -15 -30
-15 -39 10 -11 29 -65 65 -97 65 -20 0 -23 -5 -23 -39z m75 -16 c14 -13 25
-31 25 -40 0 -23 -28 -18 -55 10 -28 27 -33 55 -10 55 9 0 27 -11 40 -25z
m-72 -162 c2 -5 2 -29 -1 -56 -5 -55 -25 -73 -67 -57 -46 17 -53 85 -11 112
14 10 74 10 79 1z m153 -19 c34 -51 -18 -114 -75 -93 -31 12 -41 26 -41 58 0
60 84 85 116 35z m138 10 c22 -21 20 -67 -4 -89 -17 -15 -64 -24 -75 -14 -3 4
-8 93 -6 112 2 14 70 7 85 -9z m-224 -149 c35 -18 35 -17 15 -54 -16 -33 -49
-45 -79 -29 -45 24 -50 69 -8 85 37 15 39 15 72 -2z m145 3 c58 -26 1 -110
-61 -88 -17 7 -20 15 -16 42 4 30 25 58 43 58 5 0 20 -5 34 -12z m-70 -130
c29 -13 32 -37 7 -68 -22 -27 -65 -29 -92 -5 -31 28 -26 59 13 72 45 14 43 14
72 1z"/>
</g>
</svg>
